<svg xmlns="http://www.w3.org/2000/svg" version="1.1" xmlns:xlink="http://www.w3.org/1999/xlink" xmlns:svgjs="http://svgjs.dev/svgjs" width="5000" height="2000" preserveAspectRatio="none" viewBox="0 0 5000 2000"><g mask="url(&quot;#SvgjsMask1028&quot;)" fill="none"><rect width="5000" height="2000" x="0" y="0" fill="rgba(246, 206, 192, 1)"></rect><path d="M0,2389.155C445.579,2418.314,887.935,2193.321,1212.421,1886.564C1512.19,1603.173,1507.292,1140.786,1704.046,778.212C1921.173,378.095,2390.845,105.196,2425.419,-348.723C2461.462,-821.927,2211.046,-1288.314,1887.923,-1635.895C1570.12,-1977.753,1113.823,-2138.614,660.004,-2247.767C223.258,-2352.813,-246.199,-2422.856,-660.306,-2248.795C-1058.095,-2081.593,-1235.946,-1641.466,-1531.16,-1326.758C-1841.658,-995.757,-2351.361,-795.883,-2440.628,-350.909C-2530.092,95.045,-2222.673,519.791,-1978.595,903.594C-1759.766,1247.694,-1440.659,1489.44,-1114.556,1734.283C-762.846,1998.353,-438.871,2360.435,0,2389.155" fill="#f3bfad"></path><path d="M5000 3246.782C5251.308 3276.491 5520.324 3277.518 5737.059 3146.8869999999997 5956.054 3014.8940000000002 6092.951 2778.992 6176.867 2537.457 6256.092000000001 2309.424 6229.009 2067.18 6195.224 1828.153 6161.364 1588.598 6100.925 1360.145 5980.778 1150.1509999999998 5838.522 901.5150000000001 5712.008 591.7070000000001 5438.706 505.903 5165.362 420.086 4894.762 626.7139999999999 4625.529 724.6700000000001 4374.412 816.0350000000001 4070.049 842.2570000000001 3915.357 1060.1509999999998 3762.3900000000003 1275.615 3895.142 1574.8899999999999 3838.6620000000003 1833.025 3775.719 2120.701 3443.703 2387.001 3566.4790000000003 2654.667 3689.318 2922.4700000000003 4094.7110000000002 2872.445 4367.027 2984.925 4582.428 3073.8959999999997 4768.559 3219.422 5000 3246.782" fill="#f9ddd3"></path></g><defs><mask id="SvgjsMask1028"><rect width="5000" height="2000" fill="#ffffff"></rect></mask></defs></svg>